<?xml version="1.0" encoding="iso-8859-1"?>
<!-- Generator: Adobe Illustrator 19.0.0, SVG Export Plug-In . SVG Version: 6.00 Build 0)  -->
<svg version="1.1" id="Capa_1" xmlns="http://www.w3.org/2000/svg" xmlns:xlink="http://www.w3.org/1999/xlink" x="0px" y="0px"
	 viewBox="0 0 512 512" style="enable-background:new 0 0 512 512;" xml:space="preserve">
<g>
	<g>
		<path d="M462,66H50C22.43,66,0,88.43,0,116v280c0,27.57,22.43,50,50,50h412c27.57,0,50-22.43,50-50V116
			C512,88.43,489.57,66,462,66z M450.803,86l-34,34H241.254c-5.523,0-10,4.478-10,10c0,5.522,4.477,10,10,10h155.549l-28,28h-73.976
			c-5.523,0-10,4.478-10,10c0,5.522,4.477,10,10,10h53.976l-48.901,48.901c-24.208,24.207-63.596,24.207-87.804,0L61.197,86H450.803
			z M462,426H50c-4.935,0-9.592-1.206-13.703-3.326l47.629-47.629c3.905-3.905,3.905-10.237,0-14.142
			c-1.953-1.953-4.512-2.929-7.071-2.929c-2.559,0-5.119,0.977-7.071,2.929L22.567,408.12C20.922,404.411,20,400.312,20,396V116
			c0-11.61,6.634-21.693,16.306-26.678c0.211,0.258,0.437,0.509,0.678,0.75L188.8,241.887l-63.146,63.146
			c-3.905,3.905-3.905,10.237,0,14.143c3.905,3.906,10.237,3.905,14.143,0l63.374-63.375c30.431,25.635,75.228,25.635,105.66,0
			l166.873,166.874C471.592,424.794,466.935,426,462,426z M492,396c0,4.312-0.922,8.411-2.567,12.12L323.201,241.886L475.017,90.071
			c0.241-0.241,0.466-0.491,0.678-0.75C485.366,94.307,492,104.39,492,116V396z"/>
	</g>
</g>
<g>
	<g>
		<path d="M207.4,122.931c-1.86-1.861-4.43-2.931-7.07-2.931c-2.63,0-5.21,1.07-7.07,2.931c-1.86,1.859-2.93,4.439-2.93,7.069
			s1.07,5.21,2.93,7.07s4.44,2.93,7.07,2.93c2.64,0,5.21-1.069,7.07-2.93c1.87-1.86,2.93-4.44,2.93-7.07
			S209.27,124.79,207.4,122.931z"/>
	</g>
</g>
<g>
	<g>
		<path d="M112.96,331.87c-1.86-1.86-4.44-2.93-7.08-2.93c-2.63,0-5.2,1.07-7.07,2.93c-1.86,1.86-2.92,4.44-2.92,7.07
			c0,2.64,1.06,5.21,2.92,7.07c1.87,1.87,4.44,2.93,7.07,2.93c2.64,0,5.22-1.06,7.08-2.93c1.86-1.86,2.92-4.43,2.92-7.07
			C115.88,336.31,114.82,333.73,112.96,331.87z"/>
	</g>
</g>
<g>
</g>
<g>
</g>
<g>
</g>
<g>
</g>
<g>
</g>
<g>
</g>
<g>
</g>
<g>
</g>
<g>
</g>
<g>
</g>
<g>
</g>
<g>
</g>
<g>
</g>
<g>
</g>
<g>
</g>
</svg>
